<svg width="1200" height="420" viewBox="0 0 1200 420" fill="none" xmlns="http://www.w3.org/2000/svg" role="img" aria-labelledby="title desc">
  <title id="title">AI Context Pack</title>
  <desc id="desc">A banner showing repository files becoming Codex-ready AGENTS.md and AI context reports.</desc>
  <rect width="1200" height="420" rx="28" fill="#0B1020"/>
  <rect x="32" y="32" width="1136" height="356" rx="22" fill="#111827" stroke="#263244"/>
  <circle cx="78" cy="76" r="9" fill="#EF4444"/>
  <circle cx="108" cy="76" r="9" fill="#F59E0B"/>
  <circle cx="138" cy="76" r="9" fill="#10B981"/>
  <text x="70" y="145" fill="#F8FAFC" font-family="Inter, Segoe UI, Arial, sans-serif" font-size="54" font-weight="800">AI Context Pack</text>
  <text x="72" y="194" fill="#94A3B8" font-family="Inter, Segoe UI, Arial, sans-serif" font-size="24">Generate Codex-ready AGENTS.md, context reports, and readiness checks.</text>
  <g transform="translate(74 238)">
    <rect width="260" height="92" rx="12" fill="#172033" stroke="#334155"/>
    <text x="22" y="36" fill="#38BDF8" font-family="Consolas, Menlo, monospace" font-size="18">package.json</text>
    <text x="22" y="66" fill="#CBD5E1" font-family="Consolas, Menlo, monospace" font-size="16">scripts + deps</text>
  </g>
  <g transform="translate(374 238)">
    <rect width="260" height="92" rx="12" fill="#172033" stroke="#334155"/>
    <text x="22" y="36" fill="#A78BFA" font-family="Consolas, Menlo, monospace" font-size="18">src/</text>
    <text x="22" y="66" fill="#CBD5E1" font-family="Consolas, Menlo, monospace" font-size="16">entrypoints + routes</text>
  </g>
  <path d="M660 284H750" stroke="#22C55E" stroke-width="5" stroke-linecap="round"/>
  <path d="M736 268L754 284L736 300" stroke="#22C55E" stroke-width="5" stroke-linecap="round" stroke-linejoin="round"/>
  <g transform="translate(784 214)">
    <rect width="320" height="144" rx="16" fill="#ECFDF5"/>
    <rect x="18" y="20" width="118" height="28" rx="6" fill="#059669"/>
    <text x="32" y="40" fill="#FFFFFF" font-family="Consolas, Menlo, monospace" font-size="15" font-weight="700">AGENTS.md</text>
    <text x="20" y="78" fill="#064E3B" font-family="Consolas, Menlo, monospace" font-size="15">Commands: test, build</text>
    <text x="20" y="105" fill="#064E3B" font-family="Consolas, Menlo, monospace" font-size="15">Important files: 24</text>
    <text x="20" y="132" fill="#064E3B" font-family="Consolas, Menlo, monospace" font-size="15">Doctor: ready</text>
  </g>
</svg>
